<?xml version="1.0" encoding="utf-8"?>
<!-- Generator: Adobe Illustrator 24.0.0, SVG Export Plug-In . SVG Version: 6.00 Build 0)  -->
<svg version="1.1" id="图层_1" xmlns="http://www.w3.org/2000/svg" xmlns:xlink="http://www.w3.org/1999/xlink" x="0px" y="0px"
	 viewBox="0 0 378 28" style="enable-background:new 0 0 378 28;" xml:space="preserve">
<style type="text/css">
	.st0{fill:#040000;}
</style>
<g id="XMLID_27_">
	<g id="XMLID_28_">
		<g id="XMLID_29_">
			<g id="XMLID_30_">
				<g id="XMLID_42_">
					<rect id="XMLID_54_" x="284.48" y="7.02" class="st0" width="14.84" height="2.45"/>
					<polygon id="XMLID_53_" class="st0" points="279.59,1.79 276,1.79 276,23.72 267.52,23.72 267.52,26.17 301.44,26.17 
						301.44,23.72 279.59,23.72 					"/>
					<polygon id="XMLID_52_" class="st0" points="337.51,2.84 334.01,2.84 334.01,1.79 330.42,1.79 330.42,2.84 314.93,2.84 
						314.93,1.79 311.33,1.79 311.33,2.84 307.83,2.84 307.83,5.29 337.51,5.29 					"/>
					<polygon id="XMLID_51_" class="st0" points="305.71,7.09 305.71,9.47 305.71,13.45 309.31,13.45 309.31,9.47 336.04,9.47 
						336.04,13.45 339.63,13.45 339.63,9.47 339.63,7.09 339.63,7.02 305.71,7.02 					"/>
					<polygon id="XMLID_50_" class="st0" points="311.33,11.19 311.33,17.82 311.6,17.82 314.93,17.82 333.92,17.82 333.92,15.37 
						333.91,15.37 333.91,13.64 333.91,11.33 333.91,11.19 316.73,11.19 316.73,13.64 330.31,13.64 330.31,15.37 314.93,15.37 
						314.93,11.19 					"/>
					<polygon id="XMLID_49_" class="st0" points="333.92,19.54 313.31,19.54 313.31,21.99 333.92,21.99 333.92,23.72 311.43,23.72 
						311.43,19.54 307.83,19.54 307.83,26.17 309.95,26.17 311.43,26.17 333.92,26.17 335.39,26.17 337.51,26.17 337.51,19.54 
						335.39,19.54 					"/>
					<polygon id="XMLID_48_" class="st0" points="375.88,2.84 374.41,2.84 362.83,2.84 362.83,1.79 359.24,1.79 359.24,2.84 
						347.67,2.84 346.2,2.84 344.08,2.84 344.08,9.47 347.67,9.47 347.67,5.29 374.41,5.29 374.41,9.47 378,9.47 378,2.84 					"/>
					<polygon id="XMLID_47_" class="st0" points="367.4,9.47 369.52,9.47 369.52,7.02 349.75,7.02 349.75,9.47 363.81,9.47 
						363.81,10.96 346.2,12.92 346.2,13.45 346.2,15.04 346.2,15.56 363.81,13.61 363.81,16.26 346.2,18.22 346.2,18.75 
						346.2,20.34 346.2,20.87 363.81,18.91 363.81,21.55 344.08,23.52 344.08,24.05 344.08,25.64 344.08,26.17 363.81,24.19 
						363.81,26.17 367.4,26.17 367.4,18.79 378,26.21 378,25.15 378,24.1 378,23.03 367.4,15.61 					"/>
					<polygon id="XMLID_46_" class="st0" points="369.52,13.45 369.52,15.04 369.52,15.56 375.88,14.5 375.88,13.98 375.88,12.38 
						375.88,11.86 369.52,12.92 					"/>
					<rect id="XMLID_45_" x="234.66" y="3.25" class="st0" width="27.56" height="2.45"/>
					<rect id="XMLID_44_" x="231.48" y="12.71" class="st0" width="33.92" height="2.45"/>
					<polygon id="XMLID_43_" class="st0" points="256.95,19.8 257.98,23.72 239.19,23.72 241.49,17.68 237.9,17.68 234.66,26.17 
						236.56,26.17 236.56,26.17 258.63,26.17 258.63,26.17 262.22,26.17 260.54,19.8 					"/>
				</g>
				<path id="XMLID_31_" class="st0" d="M0,28.08h214.52V-0.08H0V28.08z M198.37,12.12v3.73l-16.15,0v-3.73L198.37,12.12z
					 M167.8,8.96l1.99-5.31l1.99,5.31l5.78,15.4h-3.98l-3.79-10.09l-3.78,10.09h-3.98L167.8,8.96z M157.37,12.12v3.73h-16.15v-3.73
					H157.37z M128.49,18.44v-4.68V3.65h3.73v10.11v5.55c0,2.31-2.75,4.26-5.4,5.05l-1.3-3.49C126.8,20.44,128.49,19.7,128.49,18.44z
					 M102.29,12.13l16.15,0v3.73l-16.15,0V12.13z M78.99,3.65h3.73L90.8,17.1V3.65h3.73v20.71H90.8L82.72,10.9v13.46h-3.73V3.65z
					 M55.08,12.13l16.15,0v3.73H55.08V12.13z M45.55,3.65l0,20.71h-3.73l0-20.71H45.55z M32.3,12.14v3.73l-16.15,0v-3.73L32.3,12.14
					z"/>
			</g>
		</g>
	</g>
</g>
</svg>
