<?xml version="1.0" encoding="utf-8"?>
<!-- Generator: Adobe Illustrator 24.0.0, SVG Export Plug-In . SVG Version: 6.00 Build 0)  -->
<svg version="1.1" id="图层_1" xmlns="http://www.w3.org/2000/svg" xmlns:xlink="http://www.w3.org/1999/xlink" x="0px" y="0px"
	 viewBox="0 0 50 50" style="enable-background:new 0 0 50 50;" xml:space="preserve">
<style type="text/css">
	.st0{fill:#211512;}
</style>
<g>
	<path class="st0" d="M50,18.14H16.11v-4.77H50V18.14z M17.43,16.82h31.24v-2.13H17.43V16.82z"/>
</g>
<g>
	<rect x="16.77" y="48.68" class="st0" width="9.34" height="1.32"/>
</g>
<g>
	<rect x="25.45" y="28.17" class="st0" width="1.32" height="16.68"/>
</g>
<g>
	<polygon class="st0" points="26.77,23.69 25.45,23.69 25.45,18.14 17.43,18.14 17.43,23.69 16.11,23.69 16.11,16.82 26.77,16.82 	
		"/>
</g>
<g>
	<rect x="16.11" y="28.17" class="st0" width="1.32" height="16.68"/>
</g>
<g>
	<polygon class="st0" points="49.06,14.62 22.65,1.66 17.34,8.97 16.27,8.19 22.22,0 49.62,13.42 	"/>
</g>
<g>
	<path class="st0" d="M17.47,24.34H0V7.92h17.47V24.34z M1.32,23.02h14.83V9.24H1.32V23.02z"/>
</g>
<g>
	<rect x="21.96" y="0.83" class="st0" width="1.32" height="13.23"/>
</g>
<g>
	<path class="st0" d="M31.25,28.84h-19.6v-5.81h19.6V28.84z M12.97,27.52h16.96v-3.17H12.97V27.52z"/>
</g>
<g>
	<path class="st0" d="M41.06,50H9.41v-5.81h31.65V50z M10.73,48.68h29.01v-3.17H10.73V48.68z"/>
</g>
<g>
	<path class="st0" d="M42.67,42.17c-4.04,0-7.33-3.29-7.33-7.33h1.32c0,3.31,2.7,6.01,6.01,6.01s6.01-2.7,6.01-6.01
		s-2.7-6.01-6.01-6.01h-0.66V17.47h1.32v10.07c3.73,0.34,6.67,3.48,6.67,7.3C50,38.88,46.71,42.17,42.67,42.17z"/>
</g>
</svg>
