<?xml version="1.0" encoding="utf-8"?>
<!-- Generator: Adobe Illustrator 24.0.0, SVG Export Plug-In . SVG Version: 6.00 Build 0)  -->
<svg version="1.1" id="图层_1" xmlns="http://www.w3.org/2000/svg" xmlns:xlink="http://www.w3.org/1999/xlink" x="0px" y="0px"
	 viewBox="0 0 50 50" style="enable-background:new 0 0 50 50;" xml:space="preserve">
<style type="text/css">
	.st0{fill:#211512;}
</style>
<g>
	<polygon class="st0" points="50,45.61 0,45.61 0,6.98 29.08,6.98 29.08,8.3 1.32,8.3 1.32,44.29 48.67,44.29 48.67,8.3 44.25,8.3 
		44.25,6.98 50,6.98 	"/>
</g>
<g>
	<path class="st0" d="M31.67,50H18.33v-5.71h13.34V50z M19.65,48.68h10.7v-3.07h-10.7V48.68z"/>
</g>
<g>
	<rect x="0.66" y="38.72" class="st0" width="48.67" height="1.32"/>
</g>
<g>
	<rect x="5.14" y="48.68" class="st0" width="39.71" height="1.32"/>
</g>
<g>
	<path class="st0" d="M13.44,36.77L3.2,30.75V19.23l10.24-6.01l10.25,6.01v11.52L13.44,36.77z M4.53,29.99l8.92,5.24l8.93-5.24v-10
		l-8.93-5.23l-8.92,5.23V29.99z"/>
</g>
<g>
	<polygon class="st0" points="13.44,26.01 3.53,20.18 4.2,19.04 13.44,24.47 22.7,19.04 23.37,20.18 	"/>
</g>
<g>
	
		<rect x="12.79" y="14.05" transform="matrix(0.5056 -0.8628 0.8628 0.5056 -10.2712 21.3003)" class="st0" width="1.32" height="11.12"/>
</g>
<g>
	<rect x="12.78" y="25.24" class="st0" width="1.32" height="10.76"/>
</g>
<g>
	<path class="st0" d="M38.42,26.67H34.9l-0.26-3.43c-1.27-0.25-2.46-0.75-3.56-1.48l-2.62,2.24l-2.49-2.49l2.25-2.62
		c-0.72-1.09-1.22-2.3-1.48-3.56l-3.44-0.26v-3.52l3.44-0.26c0.26-1.27,0.76-2.48,1.48-3.56l-2.24-2.61l2.49-2.49l2.62,2.25
		c1.1-0.73,2.29-1.22,3.56-1.48L34.9,0h3.52l0.26,3.43c1.27,0.26,2.48,0.76,3.56,1.48l2.62-2.24l2.49,2.49l-2.24,2.62
		c0.73,1.1,1.22,2.29,1.48,3.56L50,11.58v3.52l-3.43,0.26c-0.25,1.27-0.75,2.46-1.48,3.56l2.25,2.62l-2.49,2.49l-2.62-2.24
		c-1.1,0.73-2.29,1.22-3.56,1.48L38.42,26.67z M36.13,25.35h1.06l0.24-3.25l0.52-0.08c1.42-0.21,2.74-0.76,3.92-1.63l0.42-0.31
		l2.47,2.12l0.75-0.75l-2.12-2.47l0.31-0.42c0.87-1.18,1.42-2.5,1.63-3.92l0.08-0.52l3.25-0.24v-1.06l-3.25-0.24l-0.08-0.52
		c-0.21-1.42-0.76-2.74-1.63-3.92l-0.31-0.42l2.12-2.47l-0.75-0.75L42.3,6.59l-0.42-0.32c-1.15-0.86-2.51-1.42-3.92-1.63l-0.52-0.08
		l-0.24-3.25h-1.06l-0.24,3.25l-0.52,0.08c-1.42,0.21-2.74,0.76-3.92,1.63l-0.42,0.31l-2.47-2.12l-0.75,0.75l2.12,2.48L29.6,8.12
		c-0.86,1.15-1.42,2.51-1.63,3.92l-0.08,0.52l-3.26,0.24v1.06l3.26,0.24l0.08,0.52c0.21,1.4,0.77,2.76,1.63,3.92l0.31,0.42
		l-2.12,2.47l0.75,0.75l2.47-2.12l0.42,0.31c1.18,0.87,2.5,1.42,3.92,1.63l0.52,0.08L36.13,25.35z"/>
</g>
<g>
	<path class="st0" d="M36.68,18.86c-0.71,0-1.43-0.14-2.11-0.42c-1.36-0.56-2.42-1.62-2.98-2.98c-0.56-1.36-0.56-2.86,0-4.22
		c0.56-1.36,1.62-2.42,2.98-2.98c1.36-0.56,2.86-0.56,4.22,0c1.36,0.56,2.42,1.62,2.98,2.98c1.16,2.81-0.18,6.04-2.98,7.2
		C38.1,18.71,37.39,18.86,36.68,18.86z M36.68,9.15c-0.54,0-1.09,0.11-1.6,0.32h0c-1.03,0.43-1.84,1.23-2.27,2.27
		c-0.43,1.03-0.43,2.17,0,3.21s1.23,1.84,2.27,2.27c1.03,0.43,2.17,0.43,3.21,0c2.13-0.88,3.15-3.34,2.27-5.47
		c-0.43-1.03-1.23-1.84-2.27-2.27C37.76,9.26,37.22,9.15,36.68,9.15z"/>
</g>
</svg>
