<?xml version="1.0" encoding="utf-8"?>
<!-- Generator: Adobe Illustrator 24.0.0, SVG Export Plug-In . SVG Version: 6.00 Build 0)  -->
<svg version="1.1" id="图层_1" xmlns="http://www.w3.org/2000/svg" xmlns:xlink="http://www.w3.org/1999/xlink" x="0px" y="0px"
	 viewBox="0 0 50 50" style="enable-background:new 0 0 50 50;" xml:space="preserve">
<style type="text/css">
	.st0{fill:transparent;}
	.st1{fill:#090204;}
	.st2{fill:none;}
</style>
<rect x="2.32" y="4.07" class="st0" width="45.37" height="6.9"/>
<g>
	<path class="st1" d="M48.39,11.67H1.61V3.36h46.78C48.39,3.36,48.39,11.67,48.39,11.67z M3.02,10.26h43.96V4.77H3.02V10.26z"/>
</g>
<rect x="0.71" y="10.97" class="st0" width="48.59" height="38.33"/>
<g>
	<path class="st1" d="M50,50H0V10.26h50V50z M1.41,48.59h47.18V11.67H1.41V48.59z"/>
</g>
<g>
	<polygon class="st1" points="13.47,26.89 7.94,21.62 8.91,20.6 13.46,24.94 21.84,16.86 22.81,17.87 	"/>
</g>
<line class="st2" x1="26.4" y1="21.64" x2="41.58" y2="21.64"/>
<g>
	<rect x="26.4" y="20.93" class="st1" width="15.18" height="1.41"/>
</g>
<line class="st2" x1="26.4" y1="37.94" x2="41.58" y2="37.94"/>
<g>
	<rect x="26.4" y="37.23" class="st1" width="15.18" height="1.41"/>
</g>
<path class="st0" d="M19.38,36.79c0,2.76-2.24,5-5,5s-5-2.24-5-5s2.24-5,5-5S19.38,34.03,19.38,36.79"/>
<g>
	<path class="st1" d="M14.38,42.49c-3.14,0-5.7-2.56-5.7-5.7s2.56-5.7,5.7-5.7s5.7,2.56,5.7,5.7S17.52,42.49,14.38,42.49z
		 M14.38,32.49c-2.37,0-4.3,1.93-4.3,4.3s1.93,4.3,4.3,4.3s4.3-1.93,4.3-4.3S16.74,32.49,14.38,32.49z"/>
</g>
<g>
	<rect x="12.27" class="st1" width="1.41" height="7.39"/>
</g>
<g>
	<rect x="36.32" class="st1" width="1.41" height="7.39"/>
</g>
</svg>
