<?xml version="1.0" encoding="utf-8"?>
<!-- Generator: Adobe Illustrator 24.0.0, SVG Export Plug-In . SVG Version: 6.00 Build 0)  -->
<svg version="1.1" id="图层_1" xmlns="http://www.w3.org/2000/svg" xmlns:xlink="http://www.w3.org/1999/xlink" x="0px" y="0px"
	 viewBox="0 0 50 50" style="enable-background:new 0 0 50 50;" xml:space="preserve">
<style type="text/css">
	.st0{fill:#211512;}
</style>
<g>
	<polygon class="st0" points="21.45,41.6 16.07,41.6 16.07,40.27 20.13,40.27 20.13,7.13 14.5,7.13 7.97,24.23 1.32,24.23 
		1.32,40.27 6.52,40.27 6.52,41.6 0,41.6 0,22.9 7.06,22.9 13.59,5.8 21.45,5.8 	"/>
</g>
<g>
	<rect x="9.07" y="18.82" class="st0" width="11.72" height="1.32"/>
</g>
<g>
	<rect x="15.33" y="23.57" class="st0" width="1.32" height="3.89"/>
</g>
<g>
	<path class="st0" d="M50,23.38H23.95V0H50V23.38z M25.27,22.05h23.41V1.32H25.27V22.05z"/>
</g>
<g>
	<polygon class="st0" points="50,41.6 41.26,41.6 41.26,40.27 48.68,40.27 48.68,27.46 25.27,27.46 25.27,40.27 31.69,40.27 
		31.69,41.6 23.95,41.6 23.95,26.13 50,26.13 	"/>
</g>
<g>
	<path class="st0" d="M11.29,50c-0.64,0-1.28-0.1-1.92-0.3c-1.58-0.51-2.87-1.61-3.62-3.09C5,45.12,4.87,43.43,5.38,41.85
		c1.06-3.26,4.58-5.05,7.84-3.99c3.26,1.06,5.05,4.58,3.99,7.84C16.36,48.33,13.92,50,11.29,50z M11.3,38.88
		c-2.06,0-3.99,1.32-4.66,3.38l0,0c-0.4,1.24-0.3,2.57,0.29,3.74s1.61,2.03,2.85,2.43c2.57,0.84,5.34-0.58,6.17-3.14
		s-0.58-5.34-3.14-6.17C12.31,38.96,11.8,38.88,11.3,38.88z"/>
</g>
<g>
	<path class="st0" d="M36.48,50c-0.79,0-1.6-0.15-2.37-0.47c-3.17-1.31-4.68-4.96-3.37-8.13c0.64-1.54,1.83-2.73,3.37-3.37
		c1.54-0.63,3.23-0.64,4.76,0c1.54,0.64,2.73,1.83,3.37,3.37c0.64,1.54,0.64,3.23,0,4.76C41.24,48.55,38.92,50,36.48,50z
		 M36.48,38.88c-0.63,0-1.27,0.13-1.87,0.38c-1.21,0.5-2.15,1.44-2.65,2.65c-0.5,1.21-0.5,2.54,0,3.75c0.5,1.21,1.44,2.15,2.65,2.65
		c1.21,0.5,2.54,0.5,3.75,0c1.21-0.5,2.15-1.44,2.65-2.65c0.5-1.21,0.5-2.54,0-3.75s-1.44-2.15-2.65-2.65
		C37.75,39,37.12,38.88,36.48,38.88z"/>
</g>
</svg>
