<?xml version="1.0" encoding="utf-8"?>
<!-- Generator: Adobe Illustrator 24.0.0, SVG Export Plug-In . SVG Version: 6.00 Build 0)  -->
<svg version="1.1" id="图层_1" xmlns="http://www.w3.org/2000/svg" xmlns:xlink="http://www.w3.org/1999/xlink" x="0px" y="0px"
	 viewBox="0 0 50 50" style="enable-background:new 0 0 50 50;" xml:space="preserve">
<style type="text/css">
	.st0{fill:#040000;}
</style>
<g>
	<path class="st0" d="M0.76,38.91C0.34,38.91,0,39.24,0,39.64c0,0.4,0.34,0.73,0.76,0.73h4.96v4.82c0,0.19,0.08,0.38,0.22,0.52
		c0.14,0.14,0.34,0.21,0.54,0.21h4.06c-0.03,0.16-0.04,0.32-0.05,0.47c-0.06,1.27,0.61,2.47,1.74,3.12c1.13,0.65,2.54,0.65,3.66,0
		c1.13-0.65,1.8-1.85,1.74-3.12c0-0.16-0.02-0.32-0.05-0.47h16.98c-0.03,0.16-0.04,0.32-0.05,0.47c-0.06,1.27,0.61,2.47,1.74,3.12
		c1.13,0.65,2.54,0.65,3.66,0c1.13-0.65,1.8-1.85,1.74-3.12c0-0.16-0.02-0.32-0.05-0.47h6.37c0.42,0,0.76-0.33,0.76-0.74v-2.37h0.52
		c0.42,0,0.76-0.33,0.76-0.73c0-0.4-0.34-0.73-0.76-0.73h-0.52v-5.31c0-0.18-0.07-0.35-0.19-0.48l-5.71-6.27
		c-0.93-1.03-2.27-1.62-3.68-1.62h-4.57V15.78c0-0.19-0.08-0.38-0.22-0.52c-0.14-0.14-0.33-0.21-0.54-0.21H20.68
		c0.73-1.43,1.11-2.99,1.11-4.58c0-5.1-3.8-9.46-8.99-10.32C7.6-0.71,2.52,2.18,0.77,6.99c-1.75,4.81,0.34,10.14,4.95,12.61v11.44
		H3.86c-0.42,0-0.76,0.33-0.76,0.73s0.34,0.73,0.76,0.73h1.86v2.47H2.66c-0.42,0-0.76,0.33-0.76,0.74c0,0.19,0.08,0.38,0.22,0.52
		c0.14,0.14,0.33,0.21,0.54,0.21h3.06v2.47L0.76,38.91L0.76,38.91z M38.07,48.37c-1.13,0-2.05-0.89-2.05-1.98
		c0-1.1,0.92-1.98,2.05-1.98c1.13,0,2.05,0.89,2.05,1.98C40.12,47.49,39.21,48.37,38.07,48.37z M34.57,29.13h4.57
		c0.97,0,1.9,0.41,2.54,1.11l5.53,6.07v8.13h-6.18c-0.67-0.94-1.77-1.5-2.94-1.5s-2.28,0.56-2.94,1.5h-0.56L34.57,29.13L34.57,29.13
		z M14.05,48.37c-1.13,0-2.05-0.89-2.05-1.98c0-1.1,0.92-1.98,2.05-1.98c1.13,0,2.05,0.89,2.05,1.98
		C16.11,47.49,15.19,48.37,14.05,48.37z M33.06,16.51v27.95H17c-0.66-0.95-1.77-1.51-2.94-1.51c-1.18,0-2.28,0.57-2.94,1.51H7.23
		v-4.09h5.92c0.42,0,0.76-0.33,0.76-0.73s-0.34-0.73-0.76-0.73H7.23v-2.47h6.09c0.2,0,0.39-0.08,0.54-0.21
		c0.14-0.14,0.22-0.32,0.22-0.52c0-0.4-0.34-0.74-0.76-0.74H7.23V32.5h6.27c0.42,0,0.76-0.33,0.76-0.73c0-0.4-0.34-0.73-0.76-0.73
		H7.23V20.26c1.19,0.44,2.46,0.66,3.74,0.66c3.51,0,6.79-1.65,8.81-4.42L33.06,16.51L33.06,16.51z M1.66,10.47
		c0-3.64,2.26-6.92,5.74-8.32c3.48-1.39,7.48-0.63,10.14,1.95c2.66,2.57,3.46,6.44,2.02,9.81c-1.44,3.36-4.83,5.55-8.6,5.55
		C5.83,19.46,1.67,15.43,1.66,10.47z"/>
	<path class="st0" d="M37.08,39.78h5.62c0.42,0,0.76-0.33,0.76-0.74v-3.63c0-0.18-0.07-0.35-0.19-0.48l-2.27-2.49
		c-0.46-0.5-1.11-0.79-1.81-0.79h-2.11c-0.2,0-0.39,0.08-0.54,0.21c-0.14,0.14-0.22,0.32-0.22,0.52v6.66
		C36.32,39.45,36.66,39.77,37.08,39.78z M37.84,33.11h1.36c0.26,0,0.5,0.11,0.67,0.3l2.08,2.28v2.63h-4.11V33.11z"/>
</g>
<path class="st0" d="M12.25,12.2l3.49,1.83c0.24,0.13,0.53,0.13,0.77,0c0.24-0.14,0.38-0.39,0.37-0.65
	c-0.01-0.27-0.17-0.5-0.41-0.63l-3.36-1.77c0.04-0.16,0.07-0.33,0.07-0.5c0-0.9-0.59-1.69-1.45-2V3.8c0.01-0.27-0.13-0.52-0.37-0.66
	c-0.24-0.14-0.54-0.14-0.77,0c-0.24,0.14-0.38,0.39-0.37,0.66v4.67C9.2,8.82,8.6,9.82,8.79,10.84s1.1,1.77,2.17,1.77
	C11.43,12.61,11.88,12.46,12.25,12.2z M10.27,10.47c0-0.27,0.17-0.52,0.43-0.62c0.26-0.1,0.56-0.05,0.76,0.15
	c0.2,0.19,0.26,0.48,0.15,0.73c-0.11,0.25-0.36,0.42-0.64,0.42c-0.19,0-0.36-0.07-0.49-0.2C10.34,10.82,10.27,10.65,10.27,10.47z"/>
</svg>
